M48
;Layer_Color=9474304
;FILE_FORMAT=4:4
METRIC,LZ
;TYPE=PLATED
T1F00S00C0.7112
%
T01
X0044323Y0045593
X0044958Y0048895
X0047244Y0051435
X0045339Y005334
X0045466Y0055245
X0046101Y005842
X004445Y0058674
X0043053Y0060452
X0049403Y0060706
Y0063246
X0051308Y0066294
X0046863Y0066548
X0054737Y0064516
X0061468Y0055626
X006477Y0052705
X0064897Y0046101
X0056261Y0046482
X0053467Y0047752
X005969Y0041656
X0077089Y0044831
X0040894Y0071247
Y0074422
X0040767Y0076327
X0049784Y0079629
M30
