%FSLAX44Y44*%
%MOMM*%
G71*
G01*
G75*
G04 Layer_Physical_Order=1*
G04 Layer_Color=255*
%ADD10R,1.3000X1.5000*%
%ADD11R,1.1000X1.0000*%
%ADD12R,1.1000X1.0000*%
%ADD13R,2.0000X3.5000*%
%ADD14R,1.0000X1.1000*%
%ADD15R,1.2500X1.1000*%
%ADD16R,1.5000X1.3000*%
%ADD17R,1.0000X1.1000*%
%ADD18R,2.0000X1.2000*%
%ADD19R,5.6000X5.6000*%
%ADD20R,0.7000X0.7500*%
%ADD21R,1.5200X1.6800*%
%ADD22R,0.8400X0.2450*%
%ADD23R,0.2450X0.8400*%
%ADD24R,1.1000X1.2500*%
%ADD25C,0.2540*%
%ADD26C,0.2000*%
%ADD27C,0.5000*%
%ADD28C,0.9000*%
%ADD29C,1.0000*%
%ADD30C,1.2000*%
%ADD31C,1.2700*%
D10*
X450850Y645160D02*
D03*
X431850D02*
D03*
X684530Y425450D02*
D03*
X665530D02*
D03*
D11*
X431310Y668020D02*
D03*
X448310D02*
D03*
X752330Y647700D02*
D03*
X735330D02*
D03*
X529100Y448310D02*
D03*
X546100D02*
D03*
X668800Y471170D02*
D03*
X685800D02*
D03*
X670070Y490220D02*
D03*
X687070D02*
D03*
X688830Y560070D02*
D03*
X671830D02*
D03*
X688830Y534670D02*
D03*
X671830D02*
D03*
X687560Y511810D02*
D03*
X670560D02*
D03*
X702800Y594360D02*
D03*
X685800D02*
D03*
D12*
X434340Y748810D02*
D03*
Y765810D02*
D03*
X534670Y715790D02*
D03*
Y732790D02*
D03*
X560070Y718330D02*
D03*
Y735330D02*
D03*
X584200Y720870D02*
D03*
Y737870D02*
D03*
X614680Y724680D02*
D03*
Y741680D02*
D03*
D13*
X802640Y693420D02*
D03*
Y583420D02*
D03*
D14*
X435610Y696740D02*
D03*
Y713740D02*
D03*
X593090Y440200D02*
D03*
Y457200D02*
D03*
D15*
X568330Y408940D02*
D03*
X544830D02*
D03*
D16*
X594360Y379730D02*
D03*
Y360730D02*
D03*
X468630Y455930D02*
D03*
Y436930D02*
D03*
D17*
X569450Y375920D02*
D03*
X552450D02*
D03*
D18*
X637930Y330560D02*
D03*
Y375560D02*
D03*
D19*
X709930Y353060D02*
D03*
D20*
X612140Y485140D02*
D03*
Y470640D02*
D03*
D21*
X421640Y405130D02*
D03*
X462240D02*
D03*
X421640Y332740D02*
D03*
X462240D02*
D03*
D22*
X591450Y578520D02*
D03*
Y573520D02*
D03*
Y568520D02*
D03*
Y563520D02*
D03*
Y558520D02*
D03*
Y553520D02*
D03*
Y548520D02*
D03*
Y543520D02*
D03*
Y538520D02*
D03*
Y533520D02*
D03*
Y528520D02*
D03*
Y523520D02*
D03*
Y518520D02*
D03*
Y513520D02*
D03*
Y508520D02*
D03*
Y503520D02*
D03*
X500750D02*
D03*
Y508520D02*
D03*
Y513520D02*
D03*
Y518520D02*
D03*
Y523520D02*
D03*
Y528520D02*
D03*
Y533520D02*
D03*
Y538520D02*
D03*
Y543520D02*
D03*
Y548520D02*
D03*
Y553520D02*
D03*
Y558520D02*
D03*
Y563520D02*
D03*
Y568520D02*
D03*
Y573520D02*
D03*
Y578520D02*
D03*
D23*
X508600Y586370D02*
D03*
X513600D02*
D03*
X518600D02*
D03*
X523600D02*
D03*
X528600D02*
D03*
X533600D02*
D03*
X538600D02*
D03*
X543600D02*
D03*
X548600D02*
D03*
X553600D02*
D03*
X558600D02*
D03*
X563600D02*
D03*
X568600D02*
D03*
X573600D02*
D03*
X578600D02*
D03*
X583600D02*
D03*
Y495670D02*
D03*
X578600D02*
D03*
X573600D02*
D03*
X568600D02*
D03*
X563600D02*
D03*
X558600D02*
D03*
X553600D02*
D03*
X548600D02*
D03*
X543600D02*
D03*
X538600D02*
D03*
X533600D02*
D03*
X528600D02*
D03*
X523600D02*
D03*
X518600D02*
D03*
X513600D02*
D03*
X508600D02*
D03*
D24*
X534670Y796930D02*
D03*
Y773430D02*
D03*
X561340Y798200D02*
D03*
Y774700D02*
D03*
X582930Y799470D02*
D03*
Y775970D02*
D03*
X610870Y800740D02*
D03*
Y777240D02*
D03*
D25*
X407670Y763270D02*
X431800D01*
X434340Y765810D01*
X413530Y748810D02*
X434340D01*
Y715010D02*
Y748810D01*
X431310Y645700D02*
Y668020D01*
X448310Y647700D02*
Y668020D01*
X557530Y770890D02*
X561340Y774700D01*
X424670Y696740D02*
X435610D01*
X408940Y712470D02*
X424670Y696740D01*
X435610Y680720D02*
Y696740D01*
Y680720D02*
X448310Y668020D01*
X532130Y770890D02*
X534670Y773430D01*
X521970Y770890D02*
X532130D01*
X521970Y745490D02*
Y770890D01*
Y745490D02*
X534670Y732790D01*
X548640Y774700D02*
X561340D01*
X548640Y746760D02*
Y774700D01*
Y746760D02*
X560070Y735330D01*
X582930Y775970D02*
X585470Y773430D01*
X596900D01*
Y750570D02*
Y773430D01*
X584200Y737870D02*
X596900Y750570D01*
X610870Y777240D02*
X623570D01*
Y750570D02*
Y777240D01*
X614680Y741680D02*
X623570Y750570D01*
X584200Y800740D02*
X610870D01*
X562610Y799470D02*
X582930D01*
X561340Y798200D02*
X562610Y799470D01*
X535940Y798200D02*
X561340D01*
X534670Y796930D02*
X535940Y798200D01*
X578600Y586370D02*
Y699800D01*
X560070Y718330D02*
X578600Y699800D01*
X583600Y586370D02*
Y720270D01*
X584200Y720870D01*
X591450Y568520D02*
X591955Y569025D01*
X597005D01*
X614680Y586701D01*
Y724680D01*
X591450Y538520D02*
X591910Y538060D01*
X651510Y622300D02*
X674370Y645160D01*
X734060D01*
X591910Y538060D02*
X612379D01*
X651510Y577191D01*
Y622300D01*
X591450Y533520D02*
X614260D01*
X664940Y584200D01*
X573095Y586875D02*
X573600Y586370D01*
X573095Y586875D02*
Y591925D01*
X571180Y593840D02*
X573095Y591925D01*
X566130Y593840D02*
X571180D01*
X560070Y599900D02*
X566130Y593840D01*
X534670Y681990D02*
Y715790D01*
Y681990D02*
X560070Y656590D01*
Y599900D02*
Y656590D01*
X296820Y795070D02*
G03*
X296820Y795070I-16250J0D01*
G01*
Y693470D02*
G03*
X296820Y693470I-16250J0D01*
G01*
D26*
X687560Y511810D02*
X688830Y513080D01*
X670560Y511810D02*
X671830Y513080D01*
X670070Y490220D02*
X670560Y490710D01*
X607390Y489890D02*
X612140Y485140D01*
X587825Y489890D02*
X607390D01*
X612670Y471170D02*
X668800D01*
X612140Y470640D02*
X612670Y471170D01*
X606530Y470640D02*
X612140D01*
X593090Y457200D02*
X606530Y470640D01*
X648970Y425450D02*
X665530D01*
X594360Y379730D02*
Y382910D01*
Y360730D02*
X624530Y330560D01*
X584640Y360730D02*
X594360D01*
X569450Y375920D02*
X584640Y360730D01*
X552450Y375920D02*
Y401320D01*
X544830Y408940D02*
X552450Y401320D01*
X546100Y448310D02*
Y478438D01*
X550262Y482600D01*
X580535D02*
X587825Y489890D01*
X553720Y482600D02*
Y495550D01*
X553600Y495670D02*
X553720Y495550D01*
X550262Y482600D02*
X553720D01*
X580535D01*
X468630Y431800D02*
Y436930D01*
Y431800D02*
X476250Y424180D01*
Y406400D02*
Y424180D01*
X463510Y406400D02*
X476250D01*
X462240Y405130D02*
X463510Y406400D01*
X476250D02*
X521970Y360680D01*
X568960D01*
Y375430D01*
X569450Y375920D01*
X462240Y405130D02*
X467320Y400050D01*
X474980D01*
X476250Y398780D01*
Y332740D02*
Y398780D01*
X462240Y332740D02*
X476250D01*
X570230Y457200D02*
X593090D01*
X562610Y464820D02*
X570230Y457200D01*
X501650Y482600D02*
X518160D01*
Y495230D01*
X518600Y495670D01*
X415290Y405130D02*
X421640D01*
X479833Y508520D02*
X500750D01*
Y501000D02*
Y503520D01*
X591450Y543520D02*
X601940D01*
X614680Y556260D01*
X473270Y513520D02*
X500750D01*
X472440Y514350D02*
X473270Y513520D01*
X453390Y520177D02*
Y533400D01*
X444040Y523870D02*
Y541830D01*
X454660Y552450D01*
X496082Y538520D02*
X500750D01*
X473830Y533520D02*
X500750D01*
X468567Y505000D02*
X476313D01*
X463143Y499110D02*
X465253Y497000D01*
X453390Y520177D02*
X468567Y505000D01*
X476313D02*
X479833Y508520D01*
X444040Y523870D02*
X466910Y501000D01*
X465253Y497000D02*
X487250D01*
X466910Y501000D02*
X500750D01*
X487250Y497000D02*
X501650Y482600D01*
X452983Y488950D02*
X463143Y499110D01*
X449580Y488950D02*
X452983D01*
X450850Y645160D02*
X473710Y622300D01*
X444500Y575833D02*
Y586740D01*
Y575833D02*
X464010Y556323D01*
Y543340D02*
Y556323D01*
Y543340D02*
X473830Y533520D01*
X494030Y632460D02*
X535940D01*
X543600Y624800D01*
Y586370D02*
Y624800D01*
X494030Y632460D02*
Y655320D01*
X435610Y713740D02*
X494030Y655320D01*
X431850Y605840D02*
Y645160D01*
X430530Y604520D02*
X431850Y605840D01*
X547370Y645160D02*
X548640Y643890D01*
Y586410D02*
Y643890D01*
X548600Y586370D02*
X548640Y586410D01*
X496082Y548520D02*
X500750D01*
X493550Y551052D02*
X496082Y548520D01*
X493550Y551052D02*
Y606580D01*
X494030Y607060D01*
X513080Y662940D02*
Y687070D01*
X434340Y765810D02*
X513080Y687070D01*
X435610Y696740D02*
X437370D01*
X468630Y665480D01*
X497840Y796290D02*
X498480Y796930D01*
X534670D01*
X473710Y560892D02*
X496082Y538520D01*
X500750Y533520D02*
X520418D01*
X553600Y500338D01*
Y495670D02*
Y500338D01*
X798050Y583420D02*
X802640D01*
X797560Y698500D02*
X802640Y693420D01*
Y636270D02*
Y693420D01*
X796290Y610870D02*
X802640D01*
Y583420D02*
Y610870D01*
X800269Y581049D02*
X802640Y583420D01*
X795679Y581049D02*
X800269D01*
X794361Y579730D02*
X795679Y581049D01*
X798050Y583420D01*
X664940Y584200D02*
X675640D01*
X685800Y594360D01*
X695500Y604060D01*
X789480D02*
X796290Y610870D01*
X695500Y604060D02*
X789480D01*
X800100Y633730D02*
X802640Y636270D01*
X443230Y455930D02*
X468630D01*
X547825Y494895D02*
X548600Y495670D01*
X547825Y488470D02*
Y494895D01*
X545620Y488470D02*
X547825D01*
X534670Y477520D02*
X545620Y488470D01*
X523600Y488590D02*
X534670Y477520D01*
X523600Y488590D02*
Y495670D01*
X534670Y453880D02*
Y477520D01*
X529100Y448310D02*
X534670Y453880D01*
X473710Y596900D02*
Y622300D01*
X461010Y584200D02*
X473710Y596900D01*
Y560892D02*
Y571500D01*
X461010Y584200D02*
X473710Y571500D01*
X684530Y425450D02*
X730250Y471170D01*
X687070Y490220D02*
X732790D01*
X713740Y471170D02*
X732790Y490220D01*
X685800Y471170D02*
X713740D01*
X687560Y511810D02*
X732790D01*
X688830Y534670D02*
X732790D01*
X688830Y560070D02*
X732790D01*
X701040Y370840D02*
Y410210D01*
X739140Y448310D01*
X593090Y419100D02*
Y440200D01*
X596900Y382270D02*
Y415290D01*
X594360Y379730D02*
X596900Y382270D01*
X568330Y408940D02*
X590550D01*
X748030Y633730D02*
X800100D01*
X735330Y646430D02*
X748030Y633730D01*
X648970Y442010D02*
X665530Y425450D01*
X648970Y442010D02*
Y461010D01*
X646230Y528520D02*
X647700Y527050D01*
X591450Y528520D02*
X646230D01*
X591450D02*
X592225Y527745D01*
X591450Y513520D02*
X634170D01*
X612140Y485140D02*
Y491490D01*
X634170Y513520D01*
X647700Y527050D01*
Y535940D02*
X671830Y560070D01*
X647700Y527050D02*
Y535940D01*
X655320Y534670D02*
X671830D01*
X647700Y527050D02*
X655320Y534670D01*
X662940Y511810D02*
X670560D01*
X647700Y527050D02*
X662940Y511810D01*
X647700Y512590D02*
X670070Y490220D01*
X647700Y512590D02*
Y527050D01*
X624530Y330560D02*
X637930D01*
X617220Y393700D02*
X648970Y425450D01*
X617220Y386080D02*
Y393700D01*
Y386080D02*
X627740Y375560D01*
X637930D01*
X590550Y408940D02*
X596900Y415290D01*
X593090Y419100D02*
X595630Y416560D01*
X596900D01*
D27*
X814930Y715420D02*
X835660Y694690D01*
Y577850D02*
Y694690D01*
X806450Y548640D02*
X835660Y577850D01*
X793750Y548640D02*
X806450D01*
X748030Y594360D02*
X793750Y548640D01*
X387350Y439420D02*
X421640Y405130D01*
X306070Y439420D02*
X387350D01*
X317500Y332740D02*
X421640D01*
X307340Y322580D02*
X317500Y332740D01*
X732790Y454660D02*
X739140Y448310D01*
X770890D01*
X702800Y594360D02*
X732790D01*
X748030D01*
X732790Y454660D02*
Y490220D01*
Y511810D01*
Y534670D01*
Y560070D01*
Y594360D01*
X751840Y701040D02*
X766220Y715420D01*
X814930D01*
X751840Y647700D02*
Y701040D01*
D28*
X369570Y712470D02*
D03*
Y737870D02*
D03*
X344170Y775970D02*
D03*
Y750370D02*
D03*
Y724770D02*
D03*
X369570Y763270D02*
D03*
D29*
X356070Y404420D02*
D03*
X306070Y439420D02*
D03*
X357340Y287580D02*
D03*
X307340Y322580D02*
D03*
D30*
X327660Y625780D02*
D03*
Y575780D02*
D03*
Y525780D02*
D03*
D31*
X407670Y763270D02*
D03*
X408940Y744220D02*
D03*
Y712470D02*
D03*
X562610Y464820D02*
D03*
X614680Y556260D02*
D03*
X472440Y514350D02*
D03*
X454660Y552450D02*
D03*
X453390Y533400D02*
D03*
X449580Y488950D02*
D03*
X444500Y586740D02*
D03*
X494030Y632460D02*
D03*
X430530Y604520D02*
D03*
X547370Y645160D02*
D03*
X494030Y607060D02*
D03*
X513080Y662940D02*
D03*
X468630Y665480D02*
D03*
X497840Y796290D02*
D03*
X443230Y455930D02*
D03*
X534670Y477520D02*
D03*
X461010Y584200D02*
D03*
X770890Y448310D02*
D03*
X648970Y461010D02*
D03*
X647700Y527050D02*
D03*
X596900Y416560D02*
D03*
M02*
