%FSLAX44Y44*%
%MOMM*%
G71*
G01*
G75*
G04 Layer_Color=16711935*
%ADD10R,1.3000X1.5000*%
%ADD11R,1.1000X1.0000*%
%ADD12R,1.1000X1.0000*%
%ADD13R,2.0000X3.5000*%
%ADD14R,1.0000X1.1000*%
%ADD15R,1.2500X1.1000*%
%ADD16R,1.5000X1.3000*%
%ADD17R,1.0000X1.1000*%
%ADD18R,2.0000X1.2000*%
%ADD19R,5.6000X5.6000*%
%ADD20R,0.7000X0.7500*%
%ADD21R,1.5200X1.6800*%
%ADD22R,0.8400X0.2450*%
%ADD23R,0.2450X0.8400*%
%ADD24R,1.1000X1.2500*%
%ADD25C,0.2540*%
%ADD26C,0.2000*%
%ADD27C,0.5000*%
%ADD28C,0.9000*%
%ADD29C,1.0000*%
%ADD30C,1.2000*%
%ADD31C,1.2700*%
%ADD32C,0.1000*%
%ADD33C,0.0000*%
%ADD34C,0.1270*%
%ADD35R,1.3970X0.4870*%
%ADD36R,1.5032X1.7032*%
%ADD37R,1.3032X1.2032*%
%ADD38R,1.3032X1.2032*%
%ADD39R,2.2032X3.7032*%
%ADD40R,1.2032X1.3032*%
%ADD41R,1.4532X1.3032*%
%ADD42R,1.7032X1.5032*%
%ADD43R,1.2032X1.3032*%
%ADD44R,2.2032X1.4032*%
%ADD45R,5.8032X5.8032*%
%ADD46R,0.9032X0.9532*%
%ADD47R,1.7232X1.8832*%
%ADD48R,1.0432X0.4482*%
%ADD49R,0.4482X1.0432*%
%ADD50R,1.3032X1.4532*%
%ADD51C,1.1032*%
%ADD52C,1.2032*%
%ADD53C,1.4032*%
%ADD54C,1.4732*%
D51*
X369570Y712470D02*
D03*
Y737870D02*
D03*
X344170Y775970D02*
D03*
Y750370D02*
D03*
Y724770D02*
D03*
X369570Y763270D02*
D03*
D52*
X356070Y404420D02*
D03*
X306070Y439420D02*
D03*
X357340Y287580D02*
D03*
X307340Y322580D02*
D03*
D53*
X327660Y625780D02*
D03*
Y575780D02*
D03*
Y525780D02*
D03*
D54*
X407670Y763270D02*
D03*
X408940Y744220D02*
D03*
Y712470D02*
D03*
X562610Y464820D02*
D03*
X614680Y556260D02*
D03*
X472440Y514350D02*
D03*
X454660Y552450D02*
D03*
X453390Y533400D02*
D03*
X449580Y488950D02*
D03*
X444500Y586740D02*
D03*
X494030Y632460D02*
D03*
X430530Y604520D02*
D03*
X547370Y645160D02*
D03*
X494030Y607060D02*
D03*
X513080Y662940D02*
D03*
X468630Y665480D02*
D03*
X497840Y796290D02*
D03*
X443230Y455930D02*
D03*
X534670Y477520D02*
D03*
X461010Y584200D02*
D03*
X770890Y448310D02*
D03*
X648970Y461010D02*
D03*
X647700Y527050D02*
D03*
X596900Y416560D02*
D03*
M02*
